<?xml version="1.0" encoding="utf-8"?>
<!-- Generator: Adobe Illustrator 24.0.1, SVG Export Plug-In . SVG Version: 6.00 Build 0)  -->
<svg version="1.1" id="Layer_1" xmlns="http://www.w3.org/2000/svg" xmlns:xlink="http://www.w3.org/1999/xlink" x="0px" y="0px"
	 viewBox="0 0 1280 343.1" style="enable-background:new 0 0 1280 343.1;" xml:space="preserve">
<style type="text/css">
	.st0{fill:#AEE0EE;}
</style>
<path class="st0" d="M1279.9,62.2c0,92.3,0,184.5,0.1,276.8c0,3.3-0.4,4.2-4,4.2c-424-0.1-848-0.1-1272,0c-3.6,0-4-0.9-4-4.2
	c0.1-92.3,0.1-184.5,0.1-276.8c11.2-2,22.5-3.9,33.7-6.2c31.1-6.3,62.6-10.7,94-15.6c27.4-4.3,55-7.6,82.6-11.3
	c22.6-3,45.2-6.1,67.9-8.8c22-2.6,44.1-4.9,66.1-7c19.1-1.9,38.2-3.7,57.4-5c18-1.2,36-2.9,54-4c18.4-1,36.7-2.2,55.1-3
	c12.3-0.5,24.5-1.9,36.8-1.2c1.7,0.1,182.3,0,183.8,0c8.6,0.1,17.2,0.2,25.9,0.9c16.5,1.2,33.2,1.2,49.7,2.3
	c5.8,0.4,11.6,0.5,17.4,0.9c16.8,1.3,33.7,2.6,50.5,3.9c9.6,0.7,19.2,1.3,28.7,2.2c16.1,1.5,32.3,3.2,48.4,4.8
	c10.5,1.1,21.1,2,31.6,3.2c13.5,1.5,26.9,3.2,40.4,4.8c14.4,1.8,28.9,3.4,43.3,5.3c15.7,2.1,31.4,4.8,47.2,6.6
	c17.4,1.9,34.7,5.1,52,7.6c17.8,2.5,35.6,5.5,53.4,8.6C1239.9,54.7,1259.9,58.5,1279.9,62.2z"/>
</svg>
