<svg id="Layer_1" data-name="Layer 1" xmlns="http://www.w3.org/2000/svg" viewBox="0 0 448.14 227.4"><defs><style>.cls-1{fill:#1c1e27;}.cls-2{fill:#f27405;}</style></defs><title>logo-scenesbook</title><path d="M109.2,332.2V224.9h52.3c9.7,0,17.7,2.3,23.7,6.9,6.3,4.7,9.4,11.9,9.4,21.3a25.08,25.08,0,0,1-4.3,14.8,24,24,0,0,1-6.1,6.2,24,24,0,0,1,9.6,8c3.6,5.1,5.4,11.5,5.4,19a31.73,31.73,0,0,1-2.4,12.3,25.5,25.5,0,0,1-7.5,10.1,37.92,37.92,0,0,1-12.7,6.5,62.54,62.54,0,0,1-17.8,2.3H109.2Zm52.1-20.5c4.6,0,8.1-1.1,10.5-3.4s3.5-5.4,3.5-9.7-1.1-7.2-3.5-9.3-5.9-3.3-10.5-3.3H132.9v25.7Zm-2.4-44.4a13,13,0,0,0,8.7-2.9c2.2-1.8,3.2-4.5,3.2-8.1,0-4.1-.9-7-2.7-8.5-2-1.6-5.1-2.4-9.2-2.4h-26v22h26Z" transform="translate(-5.22 -106.8)"/><path d="M243.5,334.2a45.42,45.42,0,0,1-16.9-3.1,36.84,36.84,0,0,1-12.7-8.7,38.53,38.53,0,0,1-7.9-13.3,52.07,52.07,0,0,1,0-33.1,37,37,0,0,1,7.9-13.3,35.92,35.92,0,0,1,12.7-8.7,42.81,42.81,0,0,1,16.9-3.1,45.42,45.42,0,0,1,16.9,3.1,36.84,36.84,0,0,1,12.7,8.7A38.53,38.53,0,0,1,281,276a52.07,52.07,0,0,1,0,33.1,35.82,35.82,0,0,1-20.6,22A45.42,45.42,0,0,1,243.5,334.2Zm0-64.6a15.41,15.41,0,0,0-7.9,1.9,18,18,0,0,0-5.6,5,22.09,22.09,0,0,0-3.3,7.3,36.88,36.88,0,0,0-1.1,8.6,35.76,35.76,0,0,0,1.1,8.7,23.59,23.59,0,0,0,3.3,7.4,16.8,16.8,0,0,0,5.5,5.1,16.19,16.19,0,0,0,7.9,1.9,15.16,15.16,0,0,0,7.9-1.9,18.19,18.19,0,0,0,5.6-5.1,22.62,22.62,0,0,0,3.3-7.4,34.56,34.56,0,0,0,0-17.3,21.2,21.2,0,0,0-3.3-7.3,17,17,0,0,0-5.6-5A14.79,14.79,0,0,0,243.5,269.6Z" transform="translate(-5.22 -106.8)"/><path d="M327.6,334.2a45.42,45.42,0,0,1-16.9-3.1,36.84,36.84,0,0,1-12.7-8.7,38.53,38.53,0,0,1-7.9-13.3,52.07,52.07,0,0,1,0-33.1,37,37,0,0,1,7.9-13.3,35.92,35.92,0,0,1,12.7-8.7,42.81,42.81,0,0,1,16.9-3.1,45.42,45.42,0,0,1,16.9,3.1,36.84,36.84,0,0,1,12.7,8.7,38.53,38.53,0,0,1,7.9,13.3,52.07,52.07,0,0,1,0,33.1,35.82,35.82,0,0,1-20.6,22A45,45,0,0,1,327.6,334.2Zm0-64.6a15.41,15.41,0,0,0-7.9,1.9,18,18,0,0,0-5.6,5,22.09,22.09,0,0,0-3.3,7.3,36.88,36.88,0,0,0-1.1,8.6,35.76,35.76,0,0,0,1.1,8.7,23.59,23.59,0,0,0,3.3,7.4,16.8,16.8,0,0,0,5.5,5.1,16.19,16.19,0,0,0,7.9,1.9,15.16,15.16,0,0,0,7.9-1.9,18.19,18.19,0,0,0,5.6-5.1,22.62,22.62,0,0,0,3.3-7.4,34.56,34.56,0,0,0,0-17.3,21.2,21.2,0,0,0-3.3-7.3,17,17,0,0,0-5.6-5A14.55,14.55,0,0,0,327.6,269.6Z" transform="translate(-5.22 -106.8)"/><polygon class="cls-1" points="419.98 225.4 398.68 191.5 392.58 197.4 392.58 225.4 370.38 225.4 370.38 118.1 392.58 118.1 392.58 171.4 417.58 146 446.08 146 414.48 176.4 446.98 225.4 419.98 225.4"/><path class="cls-1" d="M35.52,217.7c-12.3,0-20.9-2.8-25.42-8.4S4.18,195.8,6,185.6l.88-5a2.56,2.56,0,0,1,2.52-2.11H30.59a2.56,2.56,0,0,1,2.52,3l-.53,3a34.18,34.18,0,0,0-.54,5.9,7.24,7.24,0,0,0,.86,3.6,5.39,5.39,0,0,0,2.61,2.2,12.71,12.71,0,0,0,5.25.9,12.09,12.09,0,0,0,7-2.4c2-1.4,3.37-3.8,3.95-7.1a13,13,0,0,0,.15-4.8,7.21,7.21,0,0,0-1.72-3.3,16.41,16.41,0,0,0-4.26-3.1,71.32,71.32,0,0,0-7.73-3.2A65.42,65.42,0,0,1,26.79,168a27.62,27.62,0,0,1-7.89-6.9,19.93,19.93,0,0,1-3.82-9.5,38,38,0,0,1,.4-11.9c1.92-10.9,6.58-19.2,13.75-24.7s15.93-8.1,26.43-8.1a47.42,47.42,0,0,1,13,1.6,24.55,24.55,0,0,1,10.15,5.4,20.58,20.58,0,0,1,5.7,9.6,31.76,31.76,0,0,1,.19,13.7l-.65,3.69A2.56,2.56,0,0,1,81.55,143H61.14a2.56,2.56,0,0,1-2.52-3h0c.74-4.2.61-7.4-.42-9.5-.51-1.1-1.66-2.5-5.56-2.5a12.76,12.76,0,0,0-4.62.7,8.89,8.89,0,0,0-2.82,1.8,7.19,7.19,0,0,0-1.64,2.5,16.16,16.16,0,0,0-1.05,3.7,11.08,11.08,0,0,0,.38,6.3c.51,1.1,2,2.8,6.28,4.7l14.6,6.8a39,39,0,0,1,9.09,5.7,23,23,0,0,1,5.42,6.7,18.48,18.48,0,0,1,2.07,8.1,43,43,0,0,1-.72,9.2c-2,11.6-7.08,20.3-14.93,25.7C57.1,215,47.32,217.7,35.52,217.7Z" transform="translate(-5.22 -106.8)"/><path class="cls-1" d="M113.32,217.7c-8.1,0-14.55-1.4-19-4.1a21.34,21.34,0,0,1-9.61-11.9A44.1,44.1,0,0,1,82.86,184a210,210,0,0,1,2.71-21.6c1.36-7.7,3.05-15,4.89-21.5a57.29,57.29,0,0,1,8.13-17.7,38.78,38.78,0,0,1,13.73-12.1c5.51-2.9,12.36-4.3,20.56-4.3,7.8,0,13.87,1.3,18,3.9a21.09,21.09,0,0,1,8.82,10.1,30.56,30.56,0,0,1,2,12.9,106.31,106.31,0,0,1-1.35,12.2l-.15.89a2.56,2.56,0,0,1-2.52,2.11H136.5a2.56,2.56,0,0,1-2.52-3h0c1.22-6.9,1.28-11.8.29-14.7-.53-1.5-1.7-3.4-6.3-3.4a7.07,7.07,0,0,0-4.64,1.4,13.39,13.39,0,0,0-3.82,5.2,63.66,63.66,0,0,0-3.91,11.4q-1.89,7.35-3.77,18a177.91,177.91,0,0,0-2.43,18.3,36.45,36.45,0,0,0,.4,10.2,6.35,6.35,0,0,0,2.13,3.8,7.38,7.38,0,0,0,4.13,1,11,11,0,0,0,4-.7,7.88,7.88,0,0,0,3-2.5,27,27,0,0,0,3.5-6.8,78.61,78.61,0,0,0,3.14-12.7l.15-.89a2.56,2.56,0,0,1,2.52-2.11h21.21a2.56,2.56,0,0,1,2.52,3h0A100.87,100.87,0,0,1,152,190.5a46.83,46.83,0,0,1-7.67,14,34.63,34.63,0,0,1-12.73,9.8C126.62,216.6,120.52,217.7,113.32,217.7Z" transform="translate(-5.22 -106.8)"/><path class="cls-1" d="M155,213.2l18-102.29a2.56,2.56,0,0,1,2.52-2.11H233a2.56,2.56,0,0,1,2.52,3l-3.12,17.69a2.56,2.56,0,0,1-2.52,2.11H198a2.56,2.56,0,0,0-2.52,2.11l-2.24,12.69a2.56,2.56,0,0,0,2.52,3h28a2.56,2.56,0,0,1,2.52,3L223.14,170a2.56,2.56,0,0,1-2.52,2.11H190.81a2.56,2.56,0,0,0-2.52,2.11l-2.85,16.19a2.55,2.55,0,0,0,2.51,3h31.51a2.56,2.56,0,0,1,2.52,3l-3.12,17.69a2.56,2.56,0,0,1-2.52,2.11H157.53A2.55,2.55,0,0,1,155,213.2Z" transform="translate(-5.22 -106.8)"/><path class="cls-1" d="M267.22,214.08l-7.12-40.82a2.56,2.56,0,0,0-5,0l-7.2,40.84a2.56,2.56,0,0,1-2.52,2.11H225.83a2.55,2.55,0,0,1-2.51-3l18-102.29a2.56,2.56,0,0,1,2.52-2.11h24.32a2.56,2.56,0,0,1,2.51,2.1l7.14,39.59a2.55,2.55,0,0,0,5,0l7-39.57a2.56,2.56,0,0,1,2.52-2.11h19.51a2.56,2.56,0,0,1,2.52,3l-18,102.29a2.56,2.56,0,0,1-2.52,2.11h-24.1A2.55,2.55,0,0,1,267.22,214.08Z" transform="translate(-5.22 -106.8)"/><path class="cls-1" d="M304.72,213.2l18-102.29a2.56,2.56,0,0,1,2.52-2.11h57.51a2.56,2.56,0,0,1,2.52,3l-3.12,17.69a2.56,2.56,0,0,1-2.52,2.11H347.75a2.56,2.56,0,0,0-2.52,2.11L343,146.4a2.56,2.56,0,0,0,2.52,3h27.91a2.56,2.56,0,0,1,2.52,3L372.84,170a2.56,2.56,0,0,1-2.52,2.11H340.61a2.56,2.56,0,0,0-2.52,2.11l-2.85,16.19a2.55,2.55,0,0,0,2.51,3h31.51a2.56,2.56,0,0,1,2.52,3l-3.12,17.69a2.56,2.56,0,0,1-2.52,2.11H307.23A2.55,2.55,0,0,1,304.72,213.2Z" transform="translate(-5.22 -106.8)"/><path class="cls-1" d="M403.52,217.7c-12.3,0-20.9-2.8-25.42-8.4s-5.92-13.5-4.12-23.7l.88-5a2.56,2.56,0,0,1,2.52-2.11h21.21a2.56,2.56,0,0,1,2.52,3l-.53,3a34,34,0,0,0-.54,5.9,7.24,7.24,0,0,0,.86,3.6,5.39,5.39,0,0,0,2.61,2.2,12.69,12.69,0,0,0,5.24.9,12.12,12.12,0,0,0,7-2.4c2.05-1.4,3.37-3.8,4-7.1a13,13,0,0,0,.15-4.8,7.21,7.21,0,0,0-1.72-3.3,16.51,16.51,0,0,0-4.25-3.1,72.45,72.45,0,0,0-7.74-3.2,65.42,65.42,0,0,1-11.38-5.2,27.62,27.62,0,0,1-7.89-6.9,19.93,19.93,0,0,1-3.82-9.5,38.55,38.55,0,0,1,.4-11.9c1.92-10.9,6.58-19.2,13.75-24.7s15.93-8.1,26.43-8.1a47.42,47.42,0,0,1,13,1.6,24.55,24.55,0,0,1,10.15,5.4,20.58,20.58,0,0,1,5.7,9.6,31.76,31.76,0,0,1,.19,13.7l-.65,3.69a2.56,2.56,0,0,1-2.52,2.11H429.14a2.56,2.56,0,0,1-2.52-3h0c.74-4.2.61-7.4-.42-9.5-.51-1.1-1.66-2.5-5.56-2.5a12.76,12.76,0,0,0-4.62.7,8.89,8.89,0,0,0-2.82,1.8,7.19,7.19,0,0,0-1.64,2.5,16.16,16.16,0,0,0-1.05,3.7,11.08,11.08,0,0,0,.38,6.3c.51,1.1,2,2.8,6.28,4.7l14.6,6.8a39,39,0,0,1,9.09,5.7,23,23,0,0,1,5.42,6.7,18.48,18.48,0,0,1,2.07,8.1,43,43,0,0,1-.72,9.2c-2.05,11.6-7.08,20.3-14.93,25.7C425,215,415.22,217.7,403.52,217.7Z" transform="translate(-5.22 -106.8)"/><path class="cls-2" d="M180,274.8v-.3a24.59,24.59,0,0,0,10.7-8.4,22.49,22.49,0,0,0,3.8-13.1c0-8.4-2.7-14.7-8.2-18.9s-12.8-6.2-21.9-6.2H115.1V329.2h46.6a56.34,56.34,0,0,0,16.9-2.2,34.25,34.25,0,0,0,11.6-6,23.07,23.07,0,0,0,6.7-8.9A29.61,29.61,0,0,0,199,301c0-6.9-1.6-12.7-4.8-17.2C191,279.1,186.3,276.2,180,274.8Zm-47.1-32.5h29c4.8,0,8.5,1,11.1,3.1s3.8,5.7,3.8,10.8c0,4.5-1.4,8-4.3,10.4a16,16,0,0,1-10.6,3.6h-29Zm43.9,68.2q-4.5,4.2-12.6,4.2H132.8V283h31.4c5.4,0,9.6,1.3,12.6,4s4.5,6.6,4.5,11.6C181.3,303.8,179.8,307.7,176.8,310.5Z" transform="translate(-5.22 -106.8)"/><path class="cls-2" d="M273.8,264.8a33.91,33.91,0,0,0-11.6-8,43.95,43.95,0,0,0-31.4,0,32.1,32.1,0,0,0-11.6,8A33.19,33.19,0,0,0,212,277a49.61,49.61,0,0,0,0,31.1,36.17,36.17,0,0,0,7.2,12.2,33,33,0,0,0,11.6,8,43.95,43.95,0,0,0,31.4,0,32.1,32.1,0,0,0,11.6-8,33.19,33.19,0,0,0,7.2-12.2,49.61,49.61,0,0,0,0-31.1A32.39,32.39,0,0,0,273.8,264.8Zm-7.7,37.1a26.2,26.2,0,0,1-3.8,8.3,20.75,20.75,0,0,1-6.5,6,20.36,20.36,0,0,1-18.8,0,19.64,19.64,0,0,1-6.5-6,26.2,26.2,0,0,1-3.8-8.3,37.28,37.28,0,0,1-1.2-9.4,38.47,38.47,0,0,1,1.2-9.4,25.23,25.23,0,0,1,3.8-8.3,20.44,20.44,0,0,1,6.5-5.9,18.7,18.7,0,0,1,9.4-2.3,19,19,0,0,1,9.4,2.3,20.44,20.44,0,0,1,6.5,5.9,25.23,25.23,0,0,1,3.8,8.3,37.42,37.42,0,0,1,0,18.8Z" transform="translate(-5.22 -106.8)"/><path class="cls-2" d="M358,264.8a33.91,33.91,0,0,0-11.6-8,43.95,43.95,0,0,0-31.4,0,32.1,32.1,0,0,0-11.6,8,33.19,33.19,0,0,0-7.2,12.2,49.61,49.61,0,0,0,0,31.1,36.17,36.17,0,0,0,7.2,12.2,33,33,0,0,0,11.6,8,43.95,43.95,0,0,0,31.4,0,32.1,32.1,0,0,0,11.6-8,33.19,33.19,0,0,0,7.2-12.2,49.61,49.61,0,0,0,0-31.1A35.23,35.23,0,0,0,358,264.8Zm-7.7,37.1a26.2,26.2,0,0,1-3.8,8.3,20.75,20.75,0,0,1-6.5,6,20.36,20.36,0,0,1-18.8,0,18.72,18.72,0,0,1-6.5-6,26.2,26.2,0,0,1-3.8-8.3,37.28,37.28,0,0,1-1.2-9.4,38.47,38.47,0,0,1,1.2-9.4,25.23,25.23,0,0,1,3.8-8.3,20.44,20.44,0,0,1,6.5-5.9,18.7,18.7,0,0,1,9.4-2.3,19,19,0,0,1,9.4,2.3,20.44,20.44,0,0,1,6.5,5.9,25.23,25.23,0,0,1,3.8,8.3,37.42,37.42,0,0,1,0,18.8Z" transform="translate(-5.22 -106.8)"/><polygon class="cls-2" points="413.58 176 441.68 149 421.78 149 392.58 178.7 392.58 121.1 376.38 121.1 376.38 222.4 392.58 222.4 392.58 196.1 402.18 186.8 424.68 222.4 444.38 222.4 413.58 176"/></svg>